<svg xmlns="http://www.w3.org/2000/svg" width="85.112" height="72.018" viewBox="0 0 85.112 72.018"><defs><style>.a{fill:#d9d9d9;}</style></defs><g transform="translate(0 -36.545)"><g transform="translate(0 36.545)"><path class="a" d="M25.787,69.281H15.759a3.9,3.9,0,0,1-3.045-1.432A5.1,5.1,0,0,1,11.46,64.37V62.734a13.574,13.574,0,0,1,3.358-9.258,10.4,10.4,0,0,1,8.1-3.836h2.865a2.6,2.6,0,0,0,2.015-.972,3.381,3.381,0,0,0,.851-2.3V39.819a3.383,3.383,0,0,0-.851-2.3,2.6,2.6,0,0,0-2.015-.972H22.922a19.967,19.967,0,0,0-8.887,2.072,23.176,23.176,0,0,0-7.32,5.6,26.877,26.877,0,0,0-4.9,8.362A28.669,28.669,0,0,0,0,62.734V98.742A10.2,10.2,0,0,0,2.507,105.7,7.8,7.8,0,0,0,8.6,108.563H25.788a7.8,7.8,0,0,0,6.089-2.864,10.2,10.2,0,0,0,2.507-6.957V79.1a10.193,10.193,0,0,0-2.508-6.957A7.8,7.8,0,0,0,25.787,69.281Z" transform="translate(0 -36.545)"/><path class="a" d="M287.7,72.145a7.8,7.8,0,0,0-6.089-2.864H271.58a3.9,3.9,0,0,1-3.044-1.432,5.1,5.1,0,0,1-1.253-3.479V62.734a13.579,13.579,0,0,1,3.357-9.258,10.4,10.4,0,0,1,8.1-3.836h2.864a2.6,2.6,0,0,0,2.015-.972,3.383,3.383,0,0,0,.851-2.3V39.819a3.384,3.384,0,0,0-.851-2.3,2.6,2.6,0,0,0-2.015-.972h-2.864a19.972,19.972,0,0,0-8.889,2.072,23.175,23.175,0,0,0-7.319,5.6,26.864,26.864,0,0,0-4.9,8.362,28.676,28.676,0,0,0-1.814,10.153V98.742a10.2,10.2,0,0,0,2.507,6.957,7.8,7.8,0,0,0,6.089,2.864h17.191A7.8,7.8,0,0,0,287.7,105.7a10.192,10.192,0,0,0,2.507-6.957V79.1A10.2,10.2,0,0,0,287.7,72.145Z" transform="translate(-205.09 -36.545)"/></g></g></svg>