<svg xmlns="http://www.w3.org/2000/svg" width="558" height="504" viewBox="0 0 558 504">
  <path id="Subtraction_2" data-name="Subtraction 2" d="M558,504H183.577c76.044-2.935,165.255-22.171,238.641-51.458a500.966,500.966,0,0,0,50.594-23.319A300.833,300.833,0,0,0,513.977,403.1c24.959-19.2,39.237-38.692,42.437-57.925,4.05-24.339-3.1-57.451-20.691-95.756a444.168,444.168,0,0,0-31.394-56.379,559.954,559.954,0,0,0-41.942-56.247C389.9,51.184,305.38.048,236.3,0H558V504Zm-412.569,0H0V0H236.084a130.867,130.867,0,0,0-50.11,9.721c-44.105,18.2-85.009,56.617-118.29,111.1-29.932,49-51.914,108.28-61.9,166.93-6.812,40.023-7.616,77.882-2.323,109.485,2.754,16.445,7.143,31.163,13.045,43.746,6.158,13.129,14,24,23.305,32.3,20.179,18.006,56.7,28.629,105.617,30.72Z" fill="#fff"/>
</svg>
